HIERARCHY
ROOT Hips
{
 OFFSET 0.000000 0.000000 0.000000
 CHANNELS 6 Xposition Yposition Zposition Yrotation Xrotation Zrotation
 JOINT Chest
 {
  OFFSET 0.000000 10.388337 0.005184
  CHANNELS 3 Yrotation Xrotation Zrotation
  JOINT Chest2
  {
   OFFSET 0.000000 10.458247 -0.010579
   CHANNELS 3 Yrotation Xrotation Zrotation
   JOINT Chest3
   {
    OFFSET 0.000000 10.415828 0.000000
    CHANNELS 3 Yrotation Xrotation Zrotation
    JOINT Chest4
    {
     OFFSET 0.000000 10.405206 0.000000
     CHANNELS 3 Yrotation Xrotation Zrotation
     JOINT Neck
     {
      OFFSET 0.000000 15.720090 0.000000
      CHANNELS 3 Yrotation Xrotation Zrotation
      JOINT Head
      {
       OFFSET 0.000000 9.732643 -0.022378
       CHANNELS 3 Yrotation Xrotation Zrotation
       End Site
       {
        OFFSET 0.000000 18.603619 -0.011814
       }
      }
     }
     JOINT RightCollar
     {
      OFFSET -3.167735 10.388953 0.000000
      CHANNELS 3 Yrotation Xrotation Zrotation
      JOINT RightShoulder
      {
       OFFSET -14.584825 0.000000 0.000000
       CHANNELS 3 Yrotation Xrotation Zrotation
       JOINT RightElbow
       {
        OFFSET 0.000000 -31.921689 0.000000
        CHANNELS 3 Yrotation Xrotation Zrotation
        JOINT RightWrist
        {
         OFFSET 0.000000 -25.835217 0.000000
         CHANNELS 3 Yrotation Xrotation Zrotation
         End Site
         {
          OFFSET 0.000000 -19.128920 0.000000
         }
        }
       }
      }
     }
     JOINT LeftCollar
     {
      OFFSET 3.167735 10.388953 0.000000
      CHANNELS 3 Yrotation Xrotation Zrotation
      JOINT LeftShoulder
      {
       OFFSET 14.584825 0.000000 0.000000
       CHANNELS 3 Yrotation Xrotation Zrotation
       JOINT LeftElbow
       {
        OFFSET 0.000000 -31.921689 0.000000
        CHANNELS 3 Yrotation Xrotation Zrotation
        JOINT LeftWrist
        {
         OFFSET 0.000000 -25.835217 0.000000
         CHANNELS 3 Yrotation Xrotation Zrotation
         End Site
         {
          OFFSET 0.000000 -19.128920 0.000000
         }
        }
       }
      }
     }
    }
   }
  }
 }
 JOINT RightHip
 {
  OFFSET -8.403278 -0.025659 -0.002592
  CHANNELS 3 Yrotation Xrotation Zrotation
  JOINT RightKnee
  {
   OFFSET 0.000000 -44.040977 0.002477
   CHANNELS 3 Yrotation Xrotation Zrotation
   JOINT RightAnkle
   {
    OFFSET 0.000000 -42.951162 0.004189
    CHANNELS 3 Yrotation Xrotation Zrotation
    JOINT RightToe
    {
     OFFSET 0.000000 -5.494238 12.197485
     CHANNELS 3 Yrotation Xrotation Zrotation
     End Site
     {
      OFFSET 0.000000 -1.538716 6.371628
     }
    }
   }
  }
 }
 JOINT LeftHip
 {
  OFFSET 8.403278 -0.025659 -0.002592
  CHANNELS 3 Yrotation Xrotation Zrotation
  JOINT LeftKnee
  {
   OFFSET 0.000000 -44.040977 0.002477
   CHANNELS 3 Yrotation Xrotation Zrotation
   JOINT LeftAnkle
   {
    OFFSET 0.000000 -42.951162 0.004189
    CHANNELS 3 Yrotation Xrotation Zrotation
    JOINT LeftToe
    {
     OFFSET 0.000000 -5.494238 12.197485
     CHANNELS 3 Yrotation Xrotation Zrotation
     End Site
     {
      OFFSET 0.000000 -1.538716 6.371628
     }
    }
   }
  }
 }
}
MOTION
Frames: 8
Frame Time: 0.008333
0.000000 92.319940 0.000000 0.000000 -5.767889 0.000000 0.000000 11.653876 0.000000 0.000000 -5.885988 0.000000 0.000000 -0.000000 0.000000 0.000000 -0.000000 0.000000 0.000000 12.528808 0.000000 0.000000 0.711711 0.000000 0.000000 -0.000000 0.000000 0.000000 0.000000 -90.000000 0.000000 -2.309063 0.000000 0.000000 2.309063 0.000000 0.000000 -0.000000 0.000000 0.000000 -0.000000 90.000000 0.000000 -2.309063 0.000000 0.000000 2.309063 0.000000 0.000000 8.520374 0.000000 0.000000 1.905768 0.000000 -0.000000 -4.658254 0.000000 0.000000 -0.000000 0.000000 0.000000 8.520374 0.000000 0.000000 1.905768 0.000000 -0.000000 -4.658254 0.000000 0.000000 -0.000000 0.000000
22.789290 93.348298 470.405546 126.103831 -5.885718 0.198903 1.152145 1.834640 -1.554280 0.019036 0.029721 -0.026848 0.034192 0.053406 -0.048231 1.130436 1.819860 -1.612219 -0.398104 18.663244 2.653665 -1.574802 -1.078299 4.992448 1.591049 9.157289 1.398323 -2.631891 4.408359 -14.466374 -0.368606 -12.344519 1.255343 1.040954 27.704144 -2.965278 3.195074 8.296950 3.479733 -4.612420 -0.861642 3.407276 -3.505913 -0.115489 -6.676938 2.766899 -1.150469 0.875234 -10.308540 -0.474403 -2.840859 7.302434 6.638555 -0.934196 -17.102602 0.241241 3.452179 0.016456 0.337519 0.335004 -1.029279 12.048050 -4.151195 17.054175 -1.264040 -0.455442 -1.421539 -6.381108 0.159579 -0.034137 0.108379 0.455294
22.844979 93.342439 470.359832 126.247440 -5.861326 0.230320 1.177115 1.845180 -1.581845 0.019419 0.029755 -0.026880 0.034879 0.053466 -0.048286 1.150944 1.817899 -1.609929 -0.414545 18.678779 2.651978 -1.603763 -1.048783 4.994130 1.571179 9.134475 1.404879 -2.652014 4.419804 -14.506074 -0.407838 -12.348929 1.261520 1.036809 27.731278 -2.929270 3.182855 8.286105 3.483337 -4.543222 -1.112034 3.450170 -3.348320 -0.211122 -6.749522 2.807392 -1.331651 0.961859 -10.197209 -0.573183 -2.892533 7.253859 6.922071 -0.867025 -17.288519 -0.022827 3.395609 0.015934 0.328287 0.343607 -0.981297 11.986007 -4.152498 17.077254 -1.074564 -0.401897 -1.628753 -6.639904 -0.061379 -0.028390 0.170588 0.503043
22.915524 93.335750 470.311807 126.389064 -5.834623 0.234539 1.200812 1.851483 -1.583405 0.019811 0.029819 -0.026922 0.035582 0.053578 -0.048360 1.171437 1.817044 -1.607695 -0.430089 18.694660 2.650965 -1.631276 -1.018638 4.996746 1.550689 9.109180 1.412810 -2.656853 4.428860 -14.542762 -0.469886 -12.345492 1.266989 1.031839 27.764066 -2.897066 3.169768 8.270824 3.491294 -4.463529 -1.362390 3.477195 -3.204728 -0.297521 -6.803685 2.850191 -1.518391 1.058290 -10.120861 -0.671257 -2.909480 7.206889 7.226323 -0.808728 -17.446139 -0.317233 3.347598 0.015186 0.328321 0.347526 -0.928602 11.913989 -4.118861 17.114931 -0.849540 -0.335482 -1.848451 -6.927520 -0.325969 -0.024557 0.222804 0.563736
22.997160 93.328497 470.259939 126.529507 -5.808382 0.234447 1.224226 1.857965 -1.580734 0.020206 0.029957 -0.027018 0.036290 0.053823 -0.048530 1.190769 1.818949 -1.607155 -0.445162 18.708944 2.651182 -1.658377 -0.991431 5.001507 1.524266 9.080066 1.421798 -2.655586 4.431256 -14.574896 -0.539772 -12.333050 1.269767 1.027110 27.797605 -2.873739 3.150739 8.249990 3.503225 -4.372076 -1.613445 3.489403 -3.069174 -0.374068 -6.841734 2.894076 -1.700578 1.159810 -10.087447 -0.769839 -2.914723 7.178006 7.544012 -0.764283 -17.575303 -0.613875 3.310289 0.016540 0.320147 0.349069 -0.873384 11.829572 -4.076418 17.154533 -0.582161 -0.255259 -2.076166 -7.261351 -0.628293 -0.021808 0.277635 0.633892
23.089631 93.320779 470.208551 126.675396 -5.781821 0.215219 1.243147 1.861300 -1.556947 0.020574 0.030166 -0.027188 0.036948 0.054196 -0.048832 1.207141 1.823476 -1.609604 -0.459825 18.722736 2.652378 -1.685053 -0.965114 5.007943 1.493233 9.052714 1.430695 -2.662233 4.423749 -14.602577 -0.600641 -12.315258 1.266273 1.026621 27.826609 -2.854871 3.125040 8.227839 3.516214 -4.272326 -1.865111 3.490145 -2.933469 -0.442355 -6.867173 2.936340 -1.872526 1.261491 -10.108674 -0.867963 -2.891100 7.176756 7.876311 -0.735038 -17.686217 -0.921304 3.283122 0.019585 0.314018 0.348605 -0.813040 11.730226 -4.004468 17.201938 -0.278134 -0.165699 -2.324969 -7.601471 -0.952522 -0.021263 0.305034 0.699237
23.188614 93.312778 470.152784 126.823480 -5.763376 0.216564 1.259603 1.868123 -1.549243 0.020903 0.030472 -0.027435 0.037535 0.054741 -0.049271 1.219673 1.831852 -1.614936 -0.473422 18.737225 2.654049 -1.709893 -0.937533 5.014881 1.460581 9.030564 1.438432 -2.684652 4.406098 -14.629635 -0.642094 -12.297863 1.258029 1.037652 27.852856 -2.833970 3.093614 8.205724 3.526513 -4.168724 -2.115863 3.482103 -2.789362 -0.502738 -6.882384 2.972816 -2.031542 1.360708 -10.181356 -0.959706 -2.886610 7.201541 8.207081 -0.712206 -17.776832 -1.213297 3.261009 0.025506 0.294190 0.346735 -0.747505 11.635192 -3.951123 17.273349 0.045004 -0.074778 -2.611093 -7.964494 -1.267353 -0.020451 0.329901 0.745917
23.294941 93.304385 470.095750 126.977290 -5.754114 0.224025 1.271007 1.879469 -1.543367 0.021183 0.030925 -0.027758 0.038034 0.055550 -0.049846 1.227432 1.846445 -1.622614 -0.485752 18.751940 2.655433 -1.732309 -0.909602 5.020883 1.427340 9.011417 1.444899 -2.720680 4.382206 -14.657415 -0.661758 -12.284619 1.246153 1.059102 27.877207 -2.812094 3.057795 8.183930 3.534114 -4.066666 -2.368693 3.469024 -2.632552 -0.555088 -6.893699 3.002431 -2.173078 1.457439 -10.303559 -1.038318 -2.889221 7.247147 8.531071 -0.690658 -17.848418 -1.498088 3.239867 0.032729 0.270441 0.343548 -0.675611 11.548393 -3.899209 17.362560 0.374427 0.012413 -2.919082 -8.308085 -1.553864 -0.020923 0.327410 0.763135
